<mxfile host="app.diagrams.net" modified="2024-04-11T11:02:31.621Z" agent="Mozilla/5.0 (Windows NT 10.0; Win64; x64) AppleWebKit/537.36 (KHTML, like Gecko) Chrome/123.0.0.0 Safari/537.36" etag="4-wwJsrKO1UTfdNitsN4" version="24.0.7" type="github">
  <diagram id="C5RBs43oDa-KdzZeNtuy" name="Page-1">
    <mxGraphModel dx="874" dy="471" grid="0" gridSize="10" guides="1" tooltips="1" connect="1" arrows="1" fold="1" page="1" pageScale="1" pageWidth="827" pageHeight="1169" math="0" shadow="0">
      <root>
        <mxCell id="WIyWlLk6GJQsqaUBKTNV-0" />
        <mxCell id="WIyWlLk6GJQsqaUBKTNV-1" parent="WIyWlLk6GJQsqaUBKTNV-0" />
        <mxCell id="5ERtGPqNOaku3HkS3xaD-11" style="edgeStyle=orthogonalEdgeStyle;rounded=0;orthogonalLoop=1;jettySize=auto;html=1;exitX=1;exitY=0.5;exitDx=0;exitDy=0;exitPerimeter=0;entryX=0;entryY=0.5;entryDx=0;entryDy=0;" edge="1" parent="WIyWlLk6GJQsqaUBKTNV-1" source="5ERtGPqNOaku3HkS3xaD-0" target="5ERtGPqNOaku3HkS3xaD-1">
          <mxGeometry relative="1" as="geometry" />
        </mxCell>
        <mxCell id="5ERtGPqNOaku3HkS3xaD-0" value="&lt;font style=&quot;font-size: 16px;&quot;&gt;开始&lt;/font&gt;" style="strokeWidth=2;html=1;shape=mxgraph.flowchart.terminator;whiteSpace=wrap;" vertex="1" parent="WIyWlLk6GJQsqaUBKTNV-1">
          <mxGeometry x="26" y="110" width="100" height="60" as="geometry" />
        </mxCell>
        <mxCell id="5ERtGPqNOaku3HkS3xaD-14" style="edgeStyle=orthogonalEdgeStyle;rounded=0;orthogonalLoop=1;jettySize=auto;html=1;exitX=1;exitY=0.5;exitDx=0;exitDy=0;" edge="1" parent="WIyWlLk6GJQsqaUBKTNV-1" source="5ERtGPqNOaku3HkS3xaD-1" target="5ERtGPqNOaku3HkS3xaD-3">
          <mxGeometry relative="1" as="geometry" />
        </mxCell>
        <mxCell id="5ERtGPqNOaku3HkS3xaD-1" value="&lt;font style=&quot;font-size: 14px;&quot;&gt;从相机发出射线&lt;/font&gt;&lt;div&gt;&lt;font style=&quot;font-size: 14px;&quot;&gt;穿过物体&lt;/font&gt;&lt;/div&gt;" style="rounded=0;whiteSpace=wrap;html=1;" vertex="1" parent="WIyWlLk6GJQsqaUBKTNV-1">
          <mxGeometry x="157" y="110" width="120" height="60" as="geometry" />
        </mxCell>
        <mxCell id="5ERtGPqNOaku3HkS3xaD-15" style="edgeStyle=orthogonalEdgeStyle;rounded=0;orthogonalLoop=1;jettySize=auto;html=1;exitX=1;exitY=0.5;exitDx=0;exitDy=0;" edge="1" parent="WIyWlLk6GJQsqaUBKTNV-1" source="5ERtGPqNOaku3HkS3xaD-3" target="5ERtGPqNOaku3HkS3xaD-7">
          <mxGeometry relative="1" as="geometry" />
        </mxCell>
        <mxCell id="5ERtGPqNOaku3HkS3xaD-3" value="&lt;font style=&quot;font-size: 14px;&quot;&gt;沿射线进行点采样&lt;/font&gt;" style="rounded=0;whiteSpace=wrap;html=1;" vertex="1" parent="WIyWlLk6GJQsqaUBKTNV-1">
          <mxGeometry x="301" y="110" width="120" height="60" as="geometry" />
        </mxCell>
        <mxCell id="5ERtGPqNOaku3HkS3xaD-55" style="edgeStyle=orthogonalEdgeStyle;rounded=0;orthogonalLoop=1;jettySize=auto;html=1;exitX=1;exitY=0.5;exitDx=0;exitDy=0;" edge="1" parent="WIyWlLk6GJQsqaUBKTNV-1" source="5ERtGPqNOaku3HkS3xaD-7" target="5ERtGPqNOaku3HkS3xaD-16">
          <mxGeometry relative="1" as="geometry" />
        </mxCell>
        <mxCell id="5ERtGPqNOaku3HkS3xaD-7" value="&lt;font style=&quot;font-size: 14px;&quot;&gt;寻找采样点所在&lt;/font&gt;&lt;div&gt;&lt;font style=&quot;font-size: 14px;&quot;&gt;网格8个顶点&lt;/font&gt;&lt;/div&gt;" style="rounded=0;whiteSpace=wrap;html=1;" vertex="1" parent="WIyWlLk6GJQsqaUBKTNV-1">
          <mxGeometry x="445" y="110" width="120" height="60" as="geometry" />
        </mxCell>
        <mxCell id="5ERtGPqNOaku3HkS3xaD-58" style="edgeStyle=orthogonalEdgeStyle;rounded=0;orthogonalLoop=1;jettySize=auto;html=1;exitX=0.5;exitY=1;exitDx=0;exitDy=0;entryX=0.5;entryY=0;entryDx=0;entryDy=0;" edge="1" parent="WIyWlLk6GJQsqaUBKTNV-1" source="5ERtGPqNOaku3HkS3xaD-16" target="5ERtGPqNOaku3HkS3xaD-57">
          <mxGeometry relative="1" as="geometry" />
        </mxCell>
        <mxCell id="5ERtGPqNOaku3HkS3xaD-59" value="&lt;font style=&quot;font-size: 14px;&quot;&gt;输出&lt;/font&gt;" style="edgeLabel;html=1;align=center;verticalAlign=middle;resizable=0;points=[];" vertex="1" connectable="0" parent="5ERtGPqNOaku3HkS3xaD-58">
          <mxGeometry x="-0.0766" y="2" relative="1" as="geometry">
            <mxPoint x="-51" y="-5" as="offset" />
          </mxGeometry>
        </mxCell>
        <mxCell id="5ERtGPqNOaku3HkS3xaD-16" value="&lt;font style=&quot;font-size: 13px;&quot;&gt;查询哈希表，对8个点的特征值进行哈希变换&lt;/font&gt;" style="rounded=0;whiteSpace=wrap;html=1;" vertex="1" parent="WIyWlLk6GJQsqaUBKTNV-1">
          <mxGeometry x="589" y="110" width="120" height="60" as="geometry" />
        </mxCell>
        <mxCell id="5ERtGPqNOaku3HkS3xaD-34" style="edgeStyle=orthogonalEdgeStyle;rounded=0;orthogonalLoop=1;jettySize=auto;html=1;exitX=1;exitY=0.5;exitDx=0;exitDy=0;entryX=0;entryY=0.5;entryDx=0;entryDy=0;" edge="1" parent="WIyWlLk6GJQsqaUBKTNV-1" source="5ERtGPqNOaku3HkS3xaD-22" target="5ERtGPqNOaku3HkS3xaD-62">
          <mxGeometry relative="1" as="geometry">
            <mxPoint x="210.5" y="249" as="targetPoint" />
            <Array as="points">
              <mxPoint x="183" y="364" />
              <mxPoint x="183" y="249" />
            </Array>
          </mxGeometry>
        </mxCell>
        <mxCell id="5ERtGPqNOaku3HkS3xaD-22" value="&lt;font style=&quot;font-size: 14px;&quot;&gt;MLP第一部分&lt;/font&gt;&lt;div&gt;&lt;font style=&quot;font-size: 14px;&quot;&gt;（8层256通道）&lt;/font&gt;&lt;/div&gt;" style="rounded=0;whiteSpace=wrap;html=1;" vertex="1" parent="WIyWlLk6GJQsqaUBKTNV-1">
          <mxGeometry x="16" y="334" width="120" height="60" as="geometry" />
        </mxCell>
        <mxCell id="5ERtGPqNOaku3HkS3xaD-48" style="edgeStyle=orthogonalEdgeStyle;rounded=0;orthogonalLoop=1;jettySize=auto;html=1;exitX=0.5;exitY=1;exitDx=0;exitDy=0;" edge="1" parent="WIyWlLk6GJQsqaUBKTNV-1" source="5ERtGPqNOaku3HkS3xaD-36" target="5ERtGPqNOaku3HkS3xaD-70">
          <mxGeometry relative="1" as="geometry">
            <mxPoint x="448.5" y="309" as="targetPoint" />
          </mxGeometry>
        </mxCell>
        <mxCell id="5ERtGPqNOaku3HkS3xaD-49" value="&lt;font style=&quot;font-size: 14px;&quot;&gt;输出&lt;/font&gt;" style="edgeLabel;html=1;align=center;verticalAlign=middle;resizable=0;points=[];" vertex="1" connectable="0" parent="5ERtGPqNOaku3HkS3xaD-48">
          <mxGeometry x="-0.2111" y="3" relative="1" as="geometry">
            <mxPoint x="14" y="3" as="offset" />
          </mxGeometry>
        </mxCell>
        <mxCell id="5ERtGPqNOaku3HkS3xaD-36" value="&lt;font style=&quot;font-size: 14px;&quot;&gt;MLP第二部分&lt;/font&gt;&lt;div style=&quot;font-size: 14px;&quot;&gt;&lt;font style=&quot;font-size: 14px;&quot;&gt;（1层128通道）&lt;/font&gt;&lt;/div&gt;" style="rounded=0;whiteSpace=wrap;html=1;" vertex="1" parent="WIyWlLk6GJQsqaUBKTNV-1">
          <mxGeometry x="388.5" y="219" width="120" height="60" as="geometry" />
        </mxCell>
        <mxCell id="5ERtGPqNOaku3HkS3xaD-51" style="edgeStyle=orthogonalEdgeStyle;rounded=0;orthogonalLoop=1;jettySize=auto;html=1;entryX=0;entryY=0.5;entryDx=0;entryDy=0;" edge="1" parent="WIyWlLk6GJQsqaUBKTNV-1" source="5ERtGPqNOaku3HkS3xaD-70" target="5ERtGPqNOaku3HkS3xaD-43">
          <mxGeometry relative="1" as="geometry">
            <mxPoint x="388.5" y="339" as="sourcePoint" />
            <Array as="points">
              <mxPoint x="356" y="339" />
              <mxPoint x="356" y="429" />
            </Array>
          </mxGeometry>
        </mxCell>
        <mxCell id="5ERtGPqNOaku3HkS3xaD-54" style="edgeStyle=orthogonalEdgeStyle;rounded=0;orthogonalLoop=1;jettySize=auto;html=1;exitX=1;exitY=0.5;exitDx=0;exitDy=0;" edge="1" parent="WIyWlLk6GJQsqaUBKTNV-1" source="5ERtGPqNOaku3HkS3xaD-43" target="5ERtGPqNOaku3HkS3xaD-72">
          <mxGeometry relative="1" as="geometry">
            <mxPoint x="532" y="429" as="targetPoint" />
          </mxGeometry>
        </mxCell>
        <mxCell id="5ERtGPqNOaku3HkS3xaD-73" value="&lt;font style=&quot;font-size: 14px;&quot;&gt;输出&lt;/font&gt;" style="edgeLabel;html=1;align=center;verticalAlign=middle;resizable=0;points=[];" vertex="1" connectable="0" parent="5ERtGPqNOaku3HkS3xaD-54">
          <mxGeometry x="0.313" relative="1" as="geometry">
            <mxPoint x="4" y="-11" as="offset" />
          </mxGeometry>
        </mxCell>
        <mxCell id="5ERtGPqNOaku3HkS3xaD-43" value="&lt;font style=&quot;font-size: 14px;&quot;&gt;进行体渲染&lt;/font&gt;" style="rounded=0;whiteSpace=wrap;html=1;" vertex="1" parent="WIyWlLk6GJQsqaUBKTNV-1">
          <mxGeometry x="388.5" y="399" width="120" height="60" as="geometry" />
        </mxCell>
        <mxCell id="5ERtGPqNOaku3HkS3xaD-44" style="edgeStyle=orthogonalEdgeStyle;rounded=0;orthogonalLoop=1;jettySize=auto;html=1;exitX=1;exitY=0.5;exitDx=0;exitDy=0;" edge="1" parent="WIyWlLk6GJQsqaUBKTNV-1" source="5ERtGPqNOaku3HkS3xaD-22" target="5ERtGPqNOaku3HkS3xaD-63">
          <mxGeometry relative="1" as="geometry">
            <mxPoint x="211.46000000000004" y="437.34000000000003" as="targetPoint" />
            <Array as="points">
              <mxPoint x="183" y="364" />
              <mxPoint x="183" y="427" />
            </Array>
          </mxGeometry>
        </mxCell>
        <mxCell id="5ERtGPqNOaku3HkS3xaD-45" value="&lt;font style=&quot;font-size: 14px;&quot;&gt;输出&lt;/font&gt;" style="edgeLabel;html=1;align=center;verticalAlign=middle;resizable=0;points=[];" vertex="1" connectable="0" parent="5ERtGPqNOaku3HkS3xaD-44">
          <mxGeometry x="-0.8098" y="2" relative="1" as="geometry">
            <mxPoint x="4" y="-12" as="offset" />
          </mxGeometry>
        </mxCell>
        <mxCell id="5ERtGPqNOaku3HkS3xaD-60" style="edgeStyle=orthogonalEdgeStyle;rounded=0;orthogonalLoop=1;jettySize=auto;html=1;exitX=0.5;exitY=1;exitDx=0;exitDy=0;entryX=0.5;entryY=0;entryDx=0;entryDy=0;" edge="1" parent="WIyWlLk6GJQsqaUBKTNV-1" source="5ERtGPqNOaku3HkS3xaD-57" target="5ERtGPqNOaku3HkS3xaD-22">
          <mxGeometry relative="1" as="geometry" />
        </mxCell>
        <mxCell id="5ERtGPqNOaku3HkS3xaD-61" value="&lt;font style=&quot;font-size: 14px;&quot;&gt;输入&lt;/font&gt;" style="edgeLabel;html=1;align=center;verticalAlign=middle;resizable=0;points=[];" vertex="1" connectable="0" parent="5ERtGPqNOaku3HkS3xaD-60">
          <mxGeometry x="-0.3077" y="4" relative="1" as="geometry">
            <mxPoint x="11" y="5" as="offset" />
          </mxGeometry>
        </mxCell>
        <mxCell id="5ERtGPqNOaku3HkS3xaD-57" value="&lt;font style=&quot;font-size: 14px;&quot;&gt;哈希编码&lt;/font&gt;" style="shape=parallelogram;perimeter=parallelogramPerimeter;whiteSpace=wrap;html=1;fixedSize=1;" vertex="1" parent="WIyWlLk6GJQsqaUBKTNV-1">
          <mxGeometry x="16" y="222" width="120" height="60" as="geometry" />
        </mxCell>
        <mxCell id="5ERtGPqNOaku3HkS3xaD-65" style="edgeStyle=orthogonalEdgeStyle;rounded=0;orthogonalLoop=1;jettySize=auto;html=1;exitX=1;exitY=0.5;exitDx=0;exitDy=0;entryX=0;entryY=0.5;entryDx=0;entryDy=0;" edge="1" parent="WIyWlLk6GJQsqaUBKTNV-1" source="5ERtGPqNOaku3HkS3xaD-62" target="5ERtGPqNOaku3HkS3xaD-36">
          <mxGeometry relative="1" as="geometry" />
        </mxCell>
        <mxCell id="5ERtGPqNOaku3HkS3xaD-62" value="&lt;span style=&quot;font-size: 14px;&quot;&gt;256维特征向量&lt;/span&gt;" style="shape=parallelogram;perimeter=parallelogramPerimeter;whiteSpace=wrap;html=1;fixedSize=1;" vertex="1" parent="WIyWlLk6GJQsqaUBKTNV-1">
          <mxGeometry x="206" y="219" width="120" height="60" as="geometry" />
        </mxCell>
        <mxCell id="5ERtGPqNOaku3HkS3xaD-64" style="edgeStyle=orthogonalEdgeStyle;rounded=0;orthogonalLoop=1;jettySize=auto;html=1;exitX=1;exitY=0.5;exitDx=0;exitDy=0;" edge="1" parent="WIyWlLk6GJQsqaUBKTNV-1" source="5ERtGPqNOaku3HkS3xaD-63" target="5ERtGPqNOaku3HkS3xaD-43">
          <mxGeometry relative="1" as="geometry" />
        </mxCell>
        <mxCell id="5ERtGPqNOaku3HkS3xaD-63" value="&lt;span style=&quot;font-size: 15px;&quot;&gt;体密度&lt;/span&gt;" style="shape=parallelogram;perimeter=parallelogramPerimeter;whiteSpace=wrap;html=1;fixedSize=1;" vertex="1" parent="WIyWlLk6GJQsqaUBKTNV-1">
          <mxGeometry x="206" y="399" width="120" height="60" as="geometry" />
        </mxCell>
        <mxCell id="5ERtGPqNOaku3HkS3xaD-68" style="edgeStyle=orthogonalEdgeStyle;rounded=0;orthogonalLoop=1;jettySize=auto;html=1;exitX=1;exitY=0.5;exitDx=0;exitDy=0;entryX=0;entryY=0.5;entryDx=0;entryDy=0;" edge="1" parent="WIyWlLk6GJQsqaUBKTNV-1" source="5ERtGPqNOaku3HkS3xaD-66" target="5ERtGPqNOaku3HkS3xaD-36">
          <mxGeometry relative="1" as="geometry">
            <Array as="points">
              <mxPoint x="344" y="339" />
              <mxPoint x="344" y="249" />
            </Array>
          </mxGeometry>
        </mxCell>
        <mxCell id="5ERtGPqNOaku3HkS3xaD-69" value="&lt;font style=&quot;font-size: 14px;&quot;&gt;输入&lt;/font&gt;" style="edgeLabel;html=1;align=center;verticalAlign=middle;resizable=0;points=[];" vertex="1" connectable="0" parent="5ERtGPqNOaku3HkS3xaD-68">
          <mxGeometry x="0.7011" y="2" relative="1" as="geometry">
            <mxPoint y="-9" as="offset" />
          </mxGeometry>
        </mxCell>
        <mxCell id="5ERtGPqNOaku3HkS3xaD-66" value="&lt;span style=&quot;font-size: 14px;&quot;&gt;相机视角信息&lt;/span&gt;" style="shape=parallelogram;perimeter=parallelogramPerimeter;whiteSpace=wrap;html=1;fixedSize=1;" vertex="1" parent="WIyWlLk6GJQsqaUBKTNV-1">
          <mxGeometry x="209" y="309" width="120" height="60" as="geometry" />
        </mxCell>
        <mxCell id="5ERtGPqNOaku3HkS3xaD-70" value="&lt;span style=&quot;font-size: 14px;&quot;&gt;视角相关的&lt;/span&gt;&lt;div&gt;&lt;span style=&quot;font-size: 14px;&quot; lang=&quot;EN-US&quot;&gt;RGB&lt;/span&gt;&lt;span style=&quot;font-size: 14px;&quot;&gt;颜色&lt;/span&gt;&lt;/div&gt;" style="shape=parallelogram;perimeter=parallelogramPerimeter;whiteSpace=wrap;html=1;fixedSize=1;" vertex="1" parent="WIyWlLk6GJQsqaUBKTNV-1">
          <mxGeometry x="388.5" y="314" width="120" height="60" as="geometry" />
        </mxCell>
        <mxCell id="5ERtGPqNOaku3HkS3xaD-71" value="&lt;font style=&quot;font-size: 14px;&quot;&gt;输入&lt;/font&gt;" style="text;html=1;align=center;verticalAlign=middle;resizable=0;points=[];autosize=1;strokeColor=none;fillColor=none;" vertex="1" parent="WIyWlLk6GJQsqaUBKTNV-1">
          <mxGeometry x="350" y="403" width="46" height="29" as="geometry" />
        </mxCell>
        <mxCell id="5ERtGPqNOaku3HkS3xaD-75" style="edgeStyle=orthogonalEdgeStyle;rounded=0;orthogonalLoop=1;jettySize=auto;html=1;exitX=0.5;exitY=1;exitDx=0;exitDy=0;" edge="1" parent="WIyWlLk6GJQsqaUBKTNV-1" source="5ERtGPqNOaku3HkS3xaD-72" target="5ERtGPqNOaku3HkS3xaD-74">
          <mxGeometry relative="1" as="geometry" />
        </mxCell>
        <mxCell id="5ERtGPqNOaku3HkS3xaD-72" value="&lt;span style=&quot;font-size: 14px;&quot;&gt;新视角的图片&lt;/span&gt;" style="shape=parallelogram;perimeter=parallelogramPerimeter;whiteSpace=wrap;html=1;fixedSize=1;" vertex="1" parent="WIyWlLk6GJQsqaUBKTNV-1">
          <mxGeometry x="533" y="399" width="120" height="60" as="geometry" />
        </mxCell>
        <mxCell id="5ERtGPqNOaku3HkS3xaD-74" value="&lt;font style=&quot;font-size: 14px;&quot;&gt;结束&lt;/font&gt;" style="strokeWidth=2;html=1;shape=mxgraph.flowchart.terminator;whiteSpace=wrap;" vertex="1" parent="WIyWlLk6GJQsqaUBKTNV-1">
          <mxGeometry x="543" y="487" width="100" height="60" as="geometry" />
        </mxCell>
      </root>
    </mxGraphModel>
  </diagram>
</mxfile>
